<?xml version="1.0" standalone="no"?> 
<!DOCTYPE svg PUBLIC "-//W3C//DTD SVG 1.1//EN" "http://www.w3.org/Graphics/SVG/1.1/DTD/svg11.dtd">

<svg viewBox="-76.50000000000009 -94.75000000000003 1573.0000000000002 544.5 " width="1574.43" height="545.0"  version="1.1" xmlns="http://www.w3.org/2000/svg">
 <g stroke="rgb(0,0,0)" fill="rgba(255,255,255,0)" style="fill-opacity:1;fill:none" >
<text fill="black" text-anchor="middle" x="10.0" y="-70.0" transform="rotate(0 10.0 -70.0)">0</text>

<rect x="0.0" y="-60.0" width="40.0" height="60.0" />

<text fill="black" text-anchor="middle" x="70.0" y="-70.0" transform="rotate(0 70.0 -70.0)">1</text>

<rect x="60.0" y="-60.0" width="40.0" height="60.0" />

<text fill="black" text-anchor="middle" x="130.0" y="-70.0" transform="rotate(0 130.0 -70.0)">2</text>

<rect x="120.0" y="-60.0" width="40.0" height="60.0" />

<text fill="black" text-anchor="middle" x="190.0" y="-70.0" transform="rotate(0 190.0 -70.0)">3</text>

<rect x="180.0" y="-60.0" width="40.0" height="60.0" />

<text fill="black" text-anchor="middle" x="250.0" y="-70.0" transform="rotate(0 250.0 -70.0)">4</text>

<rect x="240.0" y="-60.0" width="40.0" height="60.0" />

<text fill="black" text-anchor="middle" x="310.0" y="-70.0" transform="rotate(0 310.0 -70.0)">5</text>

<rect x="300.0" y="-60.0" width="40.0" height="60.0" />

<text fill="black" text-anchor="middle" x="370.0" y="-70.0" transform="rotate(0 370.0 -70.0)">6</text>

<rect x="360.0" y="-60.0" width="40.0" height="60.0" />

<text fill="black" text-anchor="middle" x="430.0" y="-70.0" transform="rotate(0 430.0 -70.0)">7</text>

<rect x="420.0" y="-60.0" width="40.0" height="60.0" />

<text fill="black" text-anchor="middle" x="490.00000000000006" y="-70.0" transform="rotate(0 490.00000000000006 -70.0)">8</text>

<rect x="480.0" y="-60.0" width="40.0" height="60.0" />

<text fill="black" text-anchor="middle" x="550.0" y="-70.0" transform="rotate(0 550.0 -70.0)">9</text>

<rect x="540.0" y="-60.0" width="40.0" height="60.0" />

<text fill="black" text-anchor="middle" x="610.0" y="-70.0" transform="rotate(0 610.0 -70.0)">10</text>

<rect x="600.0" y="-60.0" width="40.0" height="60.0" />

<text fill="black" text-anchor="middle" x="670.0" y="-70.0" transform="rotate(0 670.0 -70.0)">11</text>

<rect x="660.0" y="-60.0" width="40.0" height="60.0" />

<text fill="black" text-anchor="middle" x="730.0" y="-70.0" transform="rotate(0 730.0 -70.0)">12</text>

<rect x="720.0" y="-60.0" width="40.0" height="60.0" />

<text fill="black" text-anchor="middle" x="790.0" y="-70.0" transform="rotate(0 790.0 -70.0)">13</text>

<rect x="780.0" y="-60.0" width="40.0" height="60.0" />

<text fill="black" text-anchor="middle" x="850.0" y="-70.0" transform="rotate(0 850.0 -70.0)">14</text>

<rect x="840.0" y="-60.0" width="40.0" height="60.0" />

<text fill="black" text-anchor="middle" x="910.0" y="-70.0" transform="rotate(0 910.0 -70.0)">15</text>

<rect x="900.0" y="-60.0" width="40.0" height="60.0" />

<text fill="black" text-anchor="middle" x="969.9999999999999" y="-70.0" transform="rotate(0 969.9999999999999 -70.0)">16</text>

<rect x="960.0" y="-60.0" width="40.0" height="60.0" />

<text fill="black" text-anchor="middle" x="1030.0" y="-70.0" transform="rotate(0 1030.0 -70.0)">17</text>

<rect x="1020.0" y="-60.0" width="40.0" height="60.0" />

<text fill="black" text-anchor="middle" x="1090.0" y="-70.0" transform="rotate(0 1090.0 -70.0)">18</text>

<rect x="1080.0" y="-60.0" width="40.0" height="60.0" />

<text fill="black" text-anchor="middle" x="1150.0" y="-70.0" transform="rotate(0 1150.0 -70.0)">19</text>

<rect x="1140.0" y="-60.0" width="40.0" height="60.0" />

<text fill="black" text-anchor="middle" x="1210.0" y="-70.0" transform="rotate(0 1210.0 -70.0)">20</text>

<rect x="1200.0" y="-60.0" width="40.0" height="60.0" />

<text fill="black" text-anchor="middle" x="1270.0" y="-70.0" transform="rotate(0 1270.0 -70.0)">21</text>

<rect x="1260.0" y="-60.0" width="40.0" height="60.0" />

<text fill="black" text-anchor="middle" x="1330.0" y="-70.0" transform="rotate(0 1330.0 -70.0)">22</text>

<rect x="1320.0" y="-60.0" width="40.0" height="60.0" />

<text fill="black" text-anchor="middle" x="1390.0" y="-70.0" transform="rotate(0 1390.0 -70.0)">23</text>

<rect x="1380.0" y="-60.0" width="40.0" height="60.0" />

<rect x="475.0" y="-65.0" width="740.0" height="70.0" />

<text fill="black" text-anchor="middle" x="844.9999999999999" y="-40.0" transform="rotate(0 844.9999999999999 -40.0)">unavailable</text>

<rect x="1315.0" y="-65.0" width="110.0" height="70.0" />

<text fill="black" text-anchor="middle" x="1370.0" y="-20.0" transform="rotate(0 1370.0 -20.0)">unavailable</text>

<rect x="-5.0" y="5.0" width="470.0" height="70.0" />

<text fill="black" text-anchor="middle" x="230.00000000000003" y="30.000000000000004" transform="rotate(0 230.00000000000003 30.000000000000004)">unavai</text>

<rect x="0.0" y="10.0" width="40.0" height="60.0" />

<rect x="60.0" y="10.0" width="40.0" height="60.0" />

<rect x="120.0" y="10.0" width="40.0" height="60.0" />

<rect x="180.0" y="10.0" width="40.0" height="60.0" />

<rect x="240.0" y="10.0" width="40.0" height="60.0" />

<rect x="300.0" y="10.0" width="40.0" height="60.0" />

<rect x="360.0" y="10.0" width="40.0" height="60.0" />

<rect x="420.0" y="10.0" width="40.0" height="60.0" />

<rect x="480.0" y="10.0" width="40.0" height="60.0" />

<rect x="540.0" y="10.0" width="40.0" height="60.0" />

<rect x="600.0" y="10.0" width="40.0" height="60.0" />

<rect x="660.0" y="10.0" width="40.0" height="60.0" />

<rect x="720.0" y="10.0" width="40.0" height="60.0" />

<rect x="780.0" y="10.0" width="40.0" height="60.0" />

<rect x="840.0" y="10.0" width="40.0" height="60.0" />

<rect x="900.0" y="10.0" width="40.0" height="60.0" />

<rect x="960.0" y="10.0" width="40.0" height="60.0" />

<rect x="1020.0" y="10.0" width="40.0" height="60.0" />

<rect x="1080.0" y="10.0" width="40.0" height="60.0" />

<rect x="1140.0" y="10.0" width="40.0" height="60.0" />

<rect x="1200.0" y="10.0" width="40.0" height="60.0" />

<rect x="1260.0" y="10.0" width="40.0" height="60.0" />

<rect x="1320.0" y="10.0" width="40.0" height="60.0" />

<rect x="1380.0" y="10.0" width="40.0" height="60.0" />

<rect x="475.0" y="5.0" width="650.0" height="70.0" />

<text fill="black" text-anchor="middle" x="800.0" y="50.0" transform="rotate(0 800.0 50.0)">unavailable</text>

<rect x="1315.0" y="5.0" width="110.0" height="70.0" />

<text fill="black" text-anchor="middle" x="1370.0" y="30.000000000000004" transform="rotate(0 1370.0 30.000000000000004)">unavailable</text>

<rect x="-5.0" y="75.0" width="470.0" height="70.0" />

<text fill="black" text-anchor="middle" x="230.00000000000003" y="120.00000000000001" transform="rotate(0 230.00000000000003 120.00000000000001)">unavai</text>

<rect x="0.0" y="80.0" width="40.0" height="60.0" />

<rect x="60.0" y="80.0" width="40.0" height="60.0" />

<rect x="120.0" y="80.0" width="40.0" height="60.0" />

<rect x="180.0" y="80.0" width="40.0" height="60.0" />

<rect x="240.0" y="80.0" width="40.0" height="60.0" />

<rect x="300.0" y="80.0" width="40.0" height="60.0" />

<rect x="360.0" y="80.0" width="40.0" height="60.0" />

<rect x="420.0" y="80.0" width="40.0" height="60.0" />

<rect x="480.0" y="80.0" width="40.0" height="60.0" />

<rect x="540.0" y="80.0" width="40.0" height="60.0" />

<rect x="600.0" y="80.0" width="40.0" height="60.0" />

<rect x="660.0" y="80.0" width="40.0" height="60.0" />

<rect x="720.0" y="80.0" width="40.0" height="60.0" />

<rect x="780.0" y="80.0" width="40.0" height="60.0" />

<rect x="840.0" y="80.0" width="40.0" height="60.0" />

<rect x="900.0" y="80.0" width="40.0" height="60.0" />

<rect x="960.0" y="80.0" width="40.0" height="60.0" />

<rect x="1020.0" y="80.0" width="40.0" height="60.0" />

<rect x="1080.0" y="80.0" width="40.0" height="60.0" />

<rect x="1140.0" y="80.0" width="40.0" height="60.0" />

<rect x="1200.0" y="80.0" width="40.0" height="60.0" />

<rect x="1260.0" y="80.0" width="40.0" height="60.0" />

<rect x="1320.0" y="80.0" width="40.0" height="60.0" />

<rect x="1380.0" y="80.0" width="40.0" height="60.0" />

<rect x="475.0" y="75.0" width="710.0" height="70.0" />

<text fill="black" text-anchor="middle" x="830.0000000000001" y="100.0" transform="rotate(0 830.0000000000001 100.0)">unavailable</text>

<rect x="1315.0" y="75.0" width="110.0" height="70.0" />

<text fill="black" text-anchor="middle" x="1370.0" y="120.00000000000001" transform="rotate(0 1370.0 120.00000000000001)">unavailable</text>

<rect x="-5.0" y="145.0" width="470.0" height="70.0" />

<text fill="black" text-anchor="middle" x="230.00000000000003" y="169.99999999999997" transform="rotate(0 230.00000000000003 169.99999999999997)">unavai</text>

<rect x="0.0" y="150.0" width="40.0" height="60.0" />

<rect x="60.0" y="150.0" width="40.0" height="60.0" />

<rect x="120.0" y="150.0" width="40.0" height="60.0" />

<rect x="180.0" y="150.0" width="40.0" height="60.0" />

<rect x="240.0" y="150.0" width="40.0" height="60.0" />

<rect x="300.0" y="150.0" width="40.0" height="60.0" />

<rect x="360.0" y="150.0" width="40.0" height="60.0" />

<rect x="420.0" y="150.0" width="40.0" height="60.0" />

<rect x="480.0" y="150.0" width="40.0" height="60.0" />

<rect x="540.0" y="150.0" width="40.0" height="60.0" />

<rect x="600.0" y="150.0" width="40.0" height="60.0" />

<rect x="660.0" y="150.0" width="40.0" height="60.0" />

<rect x="720.0" y="150.0" width="40.0" height="60.0" />

<rect x="780.0" y="150.0" width="40.0" height="60.0" />

<rect x="840.0" y="150.0" width="40.0" height="60.0" />

<rect x="900.0" y="150.0" width="40.0" height="60.0" />

<rect x="960.0" y="150.0" width="40.0" height="60.0" />

<rect x="1020.0" y="150.0" width="40.0" height="60.0" />

<rect x="1080.0" y="150.0" width="40.0" height="60.0" />

<rect x="1140.0" y="150.0" width="40.0" height="60.0" />

<rect x="1200.0" y="150.0" width="40.0" height="60.0" />

<rect x="1260.0" y="150.0" width="40.0" height="60.0" />

<rect x="1320.0" y="150.0" width="40.0" height="60.0" />

<rect x="1380.0" y="150.0" width="40.0" height="60.0" />

<rect x="475.0" y="145.0" width="650.0" height="70.0" />

<text fill="black" text-anchor="middle" x="800.0" y="190.0" transform="rotate(0 800.0 190.0)">unavailable</text>

<rect x="1315.0" y="145.0" width="110.0" height="70.0" />

<text fill="black" text-anchor="middle" x="1370.0" y="169.99999999999997" transform="rotate(0 1370.0 169.99999999999997)">unavailable</text>

<rect x="-5.0" y="215.0" width="470.0" height="70.0" />

<text fill="black" text-anchor="middle" x="230.00000000000003" y="260.0" transform="rotate(0 230.00000000000003 260.0)">unavai</text>

<rect x="0.0" y="220.0" width="40.0" height="60.0" />

<rect x="60.0" y="220.0" width="40.0" height="60.0" />

<rect x="120.0" y="220.0" width="40.0" height="60.0" />

<rect x="180.0" y="220.0" width="40.0" height="60.0" />

<rect x="240.0" y="220.0" width="40.0" height="60.0" />

<rect x="300.0" y="220.0" width="40.0" height="60.0" />

<rect x="360.0" y="220.0" width="40.0" height="60.0" />

<rect x="420.0" y="220.0" width="40.0" height="60.0" />

<rect x="480.0" y="220.0" width="40.0" height="60.0" />

<rect x="540.0" y="220.0" width="40.0" height="60.0" />

<rect x="600.0" y="220.0" width="40.0" height="60.0" />

<rect x="660.0" y="220.0" width="40.0" height="60.0" />

<rect x="720.0" y="220.0" width="40.0" height="60.0" />

<rect x="780.0" y="220.0" width="40.0" height="60.0" />

<rect x="840.0" y="220.0" width="40.0" height="60.0" />

<rect x="900.0" y="220.0" width="40.0" height="60.0" />

<rect x="960.0" y="220.0" width="40.0" height="60.0" />

<rect x="1020.0" y="220.0" width="40.0" height="60.0" />

<rect x="1080.0" y="220.0" width="40.0" height="60.0" />

<rect x="1140.0" y="220.0" width="40.0" height="60.0" />

<rect x="1200.0" y="220.0" width="40.0" height="60.0" />

<rect x="1260.0" y="220.0" width="40.0" height="60.0" />

<rect x="1320.0" y="220.0" width="40.0" height="60.0" />

<rect x="1380.0" y="220.0" width="40.0" height="60.0" />

<rect x="475.0" y="215.0" width="710.0" height="70.0" />

<text fill="black" text-anchor="middle" x="830.0000000000001" y="240.0" transform="rotate(0 830.0000000000001 240.0)">unavailable</text>

<rect x="1315.0" y="215.0" width="110.0" height="70.0" />

<text fill="black" text-anchor="middle" x="1370.0" y="260.0" transform="rotate(0 1370.0 260.0)">unavailable</text>

<rect x="-5.0" y="285.0" width="470.0" height="70.0" />

<text fill="black" text-anchor="middle" x="230.00000000000003" y="309.99999999999994" transform="rotate(0 230.00000000000003 309.99999999999994)">unavai</text>

<rect x="0.0" y="290.0" width="40.0" height="60.0" />

<rect x="60.0" y="290.0" width="40.0" height="60.0" />

<rect x="120.0" y="290.0" width="40.0" height="60.0" />

<rect x="180.0" y="290.0" width="40.0" height="60.0" />

<rect x="240.0" y="290.0" width="40.0" height="60.0" />

<rect x="300.0" y="290.0" width="40.0" height="60.0" />

<rect x="360.0" y="290.0" width="40.0" height="60.0" />

<rect x="420.0" y="290.0" width="40.0" height="60.0" />

<rect x="480.0" y="290.0" width="40.0" height="60.0" />

<rect x="540.0" y="290.0" width="40.0" height="60.0" />

<rect x="600.0" y="290.0" width="40.0" height="60.0" />

<rect x="660.0" y="290.0" width="40.0" height="60.0" />

<rect x="720.0" y="290.0" width="40.0" height="60.0" />

<rect x="780.0" y="290.0" width="40.0" height="60.0" />

<rect x="840.0" y="290.0" width="40.0" height="60.0" />

<rect x="900.0" y="290.0" width="40.0" height="60.0" />

<rect x="960.0" y="290.0" width="40.0" height="60.0" />

<rect x="1020.0" y="290.0" width="40.0" height="60.0" />

<rect x="1080.0" y="290.0" width="40.0" height="60.0" />

<rect x="1140.0" y="290.0" width="40.0" height="60.0" />

<rect x="1200.0" y="290.0" width="40.0" height="60.0" />

<rect x="1260.0" y="290.0" width="40.0" height="60.0" />

<rect x="1320.0" y="290.0" width="40.0" height="60.0" />

<rect x="1380.0" y="290.0" width="40.0" height="60.0" />

<rect x="475.0" y="285.0" width="80.0" height="70.0" />

<text fill="black" text-anchor="middle" x="515.0" y="330.0" transform="rotate(0 515.0 330.0)">unavailable</text>

<rect x="715.0" y="285.0" width="110.0" height="70.0" />

<text fill="black" text-anchor="middle" x="770.0" y="309.99999999999994" transform="rotate(0 770.0 309.99999999999994)">unavailable</text>

<rect x="1315.0" y="285.0" width="110.0" height="70.0" />

<text fill="black" text-anchor="middle" x="1370.0" y="330.0" transform="rotate(0 1370.0 330.0)">unavailable</text>

<rect x="-5.0" y="355.0" width="470.0" height="70.0" />

<text fill="black" text-anchor="middle" x="230.00000000000003" y="380.0" transform="rotate(0 230.00000000000003 380.0)">unavai</text>

<rect x="0.0" y="360.0" width="40.0" height="60.0" />

<rect x="60.0" y="360.0" width="40.0" height="60.0" />

<rect x="120.0" y="360.0" width="40.0" height="60.0" />

<rect x="180.0" y="360.0" width="40.0" height="60.0" />

<rect x="240.0" y="360.0" width="40.0" height="60.0" />

<rect x="300.0" y="360.0" width="40.0" height="60.0" />

<rect x="360.0" y="360.0" width="40.0" height="60.0" />

<rect x="420.0" y="360.0" width="40.0" height="60.0" />

<rect x="480.0" y="360.0" width="40.0" height="60.0" />

<rect x="540.0" y="360.0" width="40.0" height="60.0" />

<rect x="600.0" y="360.0" width="40.0" height="60.0" />

<rect x="660.0" y="360.0" width="40.0" height="60.0" />

<rect x="720.0" y="360.0" width="40.0" height="60.0" />

<rect x="780.0" y="360.0" width="40.0" height="60.0" />

<rect x="840.0" y="360.0" width="40.0" height="60.0" />

<rect x="900.0" y="360.0" width="40.0" height="60.0" />

<rect x="960.0" y="360.0" width="40.0" height="60.0" />

<rect x="1020.0" y="360.0" width="40.0" height="60.0" />

<rect x="1080.0" y="360.0" width="40.0" height="60.0" />

<rect x="1140.0" y="360.0" width="40.0" height="60.0" />

<rect x="1200.0" y="360.0" width="40.0" height="60.0" />

<rect x="1260.0" y="360.0" width="40.0" height="60.0" />

<rect x="1320.0" y="360.0" width="40.0" height="60.0" />

<rect x="1380.0" y="360.0" width="40.0" height="60.0" />

<rect x="475.0" y="355.0" width="110.0" height="70.0" />

<text fill="black" text-anchor="middle" x="530.0" y="400.0" transform="rotate(0 530.0 400.0)">unavailable</text>

<rect x="715.0" y="355.0" width="110.0" height="70.0" />

<text fill="black" text-anchor="middle" x="770.0" y="380.0" transform="rotate(0 770.0 380.0)">unavailable</text>

<rect x="1315.0" y="355.0" width="110.0" height="70.0" />

<text fill="black" text-anchor="middle" x="1370.0" y="400.0" transform="rotate(0 1370.0 400.0)">unavailable</text>

<rect x="-5.0" y="-65.0" width="470.0" height="70.0" />

<text fill="black" text-anchor="middle" x="230.00000000000003" y="-40.0" transform="rotate(0 230.00000000000003 -40.0)">unavai</text>

</g></svg>